<?xml version="1.0" standalone="no"?><svg xmlns="http://www.w3.org/2000/svg" viewBox="0 0 1440 320"><path fill="#f3f4f5" fill-opacity="1" d="M0,160L26.7,138.7C53.3,117,107,75,160,96C213.3,117,267,203,320,208C373.3,213,427,139,480,138.7C533.3,139,587,213,640,218.7C693.3,224,747,160,800,117.3C853.3,75,907,53,960,69.3C1013.3,85,1067,139,1120,170.7C1173.3,203,1227,213,1280,208C1333.3,203,1387,181,1413,170.7L1440,160L1440,320L1413.3,320C1386.7,320,1333,320,1280,320C1226.7,320,1173,320,1120,320C1066.7,320,1013,320,960,320C906.7,320,853,320,800,320C746.7,320,693,320,640,320C586.7,320,533,320,480,320C426.7,320,373,320,320,320C266.7,320,213,320,160,320C106.7,320,53,320,27,320L0,320Z"></path></svg>